<svg width="22" height="22" viewBox="0 0 22 22" fill="none" xmlns="http://www.w3.org/2000/svg">
<path d="M8.07016 1.95508C8.07016 1.95508 7.52875 2.2391 6.98305 2.65676C6.71234 2.86559 6.43305 3.10793 6.20961 3.38465C5.98617 3.66137 5.80141 3.98148 5.80141 4.36133C5.80141 4.73086 5.99906 5.03594 6.23109 5.24648C6.45883 5.45273 6.72523 5.59883 6.97445 5.73633C7.22367 5.87383 7.46 6.00703 7.61898 6.13594C7.77797 6.26484 7.85102 6.36797 7.8682 6.48398C7.91547 6.76758 7.64477 7.43359 7.30102 7.96641C6.95297 8.49922 6.58773 8.91602 6.58773 8.91602L7.16352 9.43164C7.16352 9.43164 7.56742 8.97617 7.94984 8.3875C8.33227 7.79883 8.74906 7.08984 8.63305 6.36367C8.57289 5.99844 8.34945 5.72773 8.10453 5.53438C7.86391 5.33672 7.5932 5.19492 7.34828 5.05742C7.10336 4.92422 6.87992 4.79102 6.74672 4.6707C6.61352 4.55039 6.57484 4.47734 6.57484 4.36133C6.57484 4.25434 6.64789 4.07258 6.81117 3.87105C6.97445 3.6691 7.21078 3.45684 7.4557 3.27121C7.94125 2.90039 8.43109 2.63914 8.43109 2.63914L8.07016 1.95508ZM11.9373 3.34855C11.9373 3.34855 11.4045 3.54879 10.8588 3.84527C10.5881 3.99352 10.3088 4.1641 10.0811 4.36562C9.84906 4.56758 9.62562 4.8125 9.62562 5.17773C9.62562 5.53008 9.87055 5.7793 10.1026 5.92969C10.3346 6.07578 10.5924 6.17891 10.8459 6.27773C11.0952 6.37227 11.3358 6.47109 11.4948 6.56133C11.6537 6.65586 11.6967 6.72891 11.6967 6.7332C11.7053 6.75898 11.6881 6.89219 11.5893 7.06836C11.4948 7.24023 11.3315 7.44648 11.1639 7.63125C10.8245 8.00508 10.4592 8.30156 10.4592 8.30156L10.9405 8.90312C10.9405 8.90312 11.3444 8.58086 11.7354 8.15547C11.9288 7.94063 12.1221 7.7043 12.2682 7.44219C12.41 7.18437 12.526 6.89219 12.453 6.56133C12.3756 6.22617 12.1221 6.03281 11.8815 5.89102C11.6409 5.75352 11.3745 5.65469 11.1252 5.55586C10.8803 5.45703 10.6526 5.3625 10.5237 5.27656C10.4248 5.21641 10.4034 5.18633 10.3991 5.17773C10.4077 5.17773 10.4463 5.07461 10.5881 4.9457C10.7471 4.8082 10.9834 4.65781 11.2284 4.52461C11.7139 4.25992 12.2123 4.07215 12.2123 4.07215L11.9373 3.34855ZM14.8377 3.89941C14.6787 3.92906 14.5026 4.08719 14.3694 4.35703C14.2362 4.62773 14.1717 4.98008 14.1932 5.225C14.1975 5.27227 14.3694 5.57734 14.5799 5.79648C14.7948 6.01562 15.0053 6.17891 15.0053 6.17891L15.1987 6.325L14.7432 8.5293L15.3577 8.71836L16.3073 6.90508C16.0881 6.66875 15.869 6.39375 15.8389 6.00273C15.8174 5.67617 15.8647 5.32813 15.985 4.99727C15.7143 4.92422 15.6498 4.78242 15.551 4.65352C15.4436 4.52461 15.3405 4.37852 15.2373 4.2509C15.1342 4.12156 15.0268 4.00941 14.9452 3.95184C14.8678 3.89469 14.8463 3.89984 14.8377 3.89984V3.89941ZM17.2569 4.61484C17.0979 4.64492 16.9217 4.79961 16.7885 5.07031C16.6596 5.34102 16.5909 5.69336 16.6123 5.94258C16.6166 5.98984 16.7885 6.29492 16.9991 6.51406C17.2139 6.7332 17.4245 6.89648 17.4245 6.89648L17.6178 7.04258L17.158 9.25117L17.7725 9.44453L18.8811 7.32617L19.0401 7.2832C19.0401 7.2832 19.444 7.16289 19.8651 6.96523C20.0756 6.86641 20.2862 6.74609 20.4366 6.62578C20.5912 6.50117 20.6729 6.38516 20.6858 6.3293V6.325C20.7502 6.10156 20.703 5.74492 20.5569 5.43984C20.4065 5.13906 20.1702 4.91133 19.9639 4.84688C19.9553 4.84258 19.9338 4.83828 19.8436 4.88984C19.7534 4.94141 19.6287 5.04453 19.4998 5.16484C19.3709 5.28945 19.2377 5.42266 19.0788 5.53867C18.9241 5.65469 18.7049 5.78789 18.4213 5.71484C18.1377 5.64609 18.0733 5.4957 17.9702 5.3668C17.8627 5.23789 17.7596 5.0918 17.6565 4.96289C17.5534 4.83398 17.4459 4.72227 17.3643 4.66641C17.287 4.60625 17.2655 4.61484 17.2569 4.61484ZM3.96922 5.15195C3.96922 5.15195 3.43211 5.38398 2.88598 5.73203C2.6127 5.9082 2.33469 6.10586 2.10695 6.34219C1.87922 6.57852 1.67555 6.85781 1.67555 7.22305C1.67555 7.57539 1.89984 7.85469 2.13059 8.02656C2.36176 8.19844 2.62387 8.31875 2.87395 8.43477C3.12402 8.54648 3.36164 8.6582 3.52105 8.76562C3.68004 8.87305 3.73418 8.95469 3.74492 9.01055C3.75996 9.08789 3.73203 9.26836 3.62934 9.4832C3.52707 9.69375 3.36465 9.93867 3.1932 10.1578C2.85074 10.5961 2.48422 10.9398 2.48422 10.9398L3.01445 11.507C3.01445 11.507 3.41707 11.1289 3.80293 10.6305C3.99586 10.3855 4.18707 10.1062 4.32758 9.81406C4.46937 9.52187 4.5725 9.20391 4.50375 8.86445C4.4393 8.5207 4.19523 8.28867 3.95332 8.12539C3.71098 7.96211 3.44285 7.8418 3.19664 7.73008C2.95043 7.61836 2.72613 7.50664 2.59422 7.40781C2.46273 7.30898 2.44855 7.27031 2.44855 7.22305C2.44855 7.18438 2.5027 7.04688 2.66168 6.8793C2.82066 6.71602 3.05828 6.53984 3.30063 6.38516C3.78574 6.07578 4.27988 5.85664 4.27988 5.85664L3.96922 5.15195ZM14.219 9.17383C14.1202 9.24258 13.8881 9.41016 13.5659 9.65508C14.0815 9.7625 14.61 9.9043 15.1428 10.0762C15.2116 10.0203 15.2717 9.97305 15.3362 9.92148C15.3147 9.74102 15.2932 9.59922 15.2803 9.50469L14.219 9.17383ZM16.6424 9.8957C16.4491 10.0332 15.8002 10.5059 14.958 11.2406C13.9784 12.0914 12.887 13.2 12.453 14.0809C12.1264 14.7426 11.7526 15.5504 11.5678 16.3152C11.383 17.0801 11.3916 17.7633 11.7096 18.2402C11.8901 18.5109 12.1694 18.5969 12.5862 18.5883C13.003 18.584 13.5014 18.4508 13.9139 18.3219C15.362 17.8492 16.8787 16.8137 17.5662 15.3227C17.8756 14.6523 17.9358 13.2816 17.8756 12.1215C17.8284 11.1762 17.7338 10.5016 17.6952 10.2309L16.6424 9.8957ZM11.8342 10.2437C11.787 10.2437 11.7354 10.2437 11.6881 10.248C10.0424 10.334 8.16039 10.6562 6.54477 11.3223C4.92484 11.984 3.58207 12.9766 2.93023 14.3816C2.69434 14.8887 2.70895 15.5719 2.92336 16.1477C3.13777 16.7234 3.53695 17.1488 3.95719 17.2605C5.80141 17.7418 8.30648 17.948 10.76 17.991C10.6096 17.4238 10.6612 16.8051 10.7987 16.2121C9.46234 16.7191 7.51156 16.8395 5.04945 16.0617L4.68422 15.9457L4.79594 15.5805C5.11391 14.5063 6.085 13.1012 7.66625 12.375L7.99281 13.0797C6.83695 13.6082 6.03344 14.6352 5.6768 15.4387C8.23344 16.1562 10.0897 15.7824 11.1037 15.2109C11.3014 14.6738 11.542 14.1711 11.7569 13.7371C12.294 12.6543 13.4198 11.5543 14.4252 10.682C13.5358 10.4242 12.6807 10.2523 11.976 10.2437H11.8342ZM18.662 12.3621C18.7092 13.4965 18.6748 14.7641 18.2709 15.6492C17.867 16.5215 17.244 17.2391 16.5178 17.8105C16.8573 17.7805 17.1795 17.7504 17.4674 17.716C18.0002 17.6602 18.4385 17.5957 18.7479 17.5355C18.9026 17.5012 19.0272 17.4711 19.1088 17.4496C19.1389 17.4367 19.1561 17.4281 19.169 17.4195C19.6889 16.7707 20.1916 16.1563 20.5268 15.5203C20.8405 14.9102 21.0123 14.2914 20.9307 13.5438C20.7545 13.4406 19.8995 12.9551 18.662 12.3621ZM2.28398 16.6246C2.05195 16.7277 1.84914 16.8309 1.6807 16.9383C1.21277 17.2348 1.05078 17.4969 1.05078 17.6816C1.05078 17.8664 1.21277 18.1285 1.6807 18.425C2.14863 18.7215 2.8748 19.0094 3.78402 19.2543C5.60375 19.7355 8.16039 20.0449 10.9791 20.0449C13.7979 20.0449 16.3545 19.7355 18.1721 19.2543C19.083 19.0094 19.8049 18.7215 20.2733 18.425C20.7416 18.1285 20.9049 17.8664 20.9049 17.6816C20.9049 17.5227 20.7803 17.3035 20.4452 17.0543C20.2088 17.3637 19.9639 17.6645 19.7233 17.9652L19.7104 17.9867L19.6889 18.0039C19.5514 18.1328 19.4612 18.1457 19.3366 18.1844C19.2162 18.223 19.0702 18.2574 18.8983 18.2918C18.5545 18.3605 18.0991 18.425 17.5534 18.4852C16.8616 18.5625 16.0237 18.6313 15.0998 18.6828C14.7819 18.8332 14.4639 18.9578 14.1502 19.0609H14.1459C13.712 19.1984 13.1577 19.3531 12.5991 19.3617C12.0834 19.3746 11.5077 19.2285 11.1424 18.773C8.53852 18.7473 5.82289 18.5453 3.76211 18.0082C3.07805 17.8277 2.57832 17.2777 2.28398 16.6246Z" fill="#BEBEBE"/>
</svg>
