<svg width="22" height="22" viewBox="0 0 22 22" fill="none" xmlns="http://www.w3.org/2000/svg">
<path d="M8.7015 0.94784C8.08086 0.941481 7.55037 1.28828 7.11037 1.86492C4.69166 1.81654 2.91662 4.68354 2.9357 8.79234L5.64943 6.21821C5.55026 6.97275 5.50033 7.74189 5.50033 8.47807C5.50033 8.68239 5.50506 8.88584 5.51516 9.08634C4.5533 9.144 3.8759 10.0518 3.85957 11.5261C3.8371 13.5486 5.06656 15.8711 6.60549 16.7133C6.95311 16.9035 7.28654 17.0016 7.59506 17.0166C7.68198 18.0951 7.82043 19.4776 7.42061 20.336C6.93807 21.372 8.59421 21.494 8.77137 20.5146C9.32038 21.4388 10.7239 20.5838 9.95301 19.8419C9.29043 19.2042 8.89061 17.8026 8.5445 16.7496C8.78727 16.5789 8.98922 16.3312 9.13931 16.0137C9.64604 16.2598 10.1857 16.3937 10.7466 16.3937C11.307 16.3937 11.8474 16.2608 12.3538 16.0151C12.5039 16.3321 12.7062 16.5791 12.9487 16.7496C12.6026 17.8027 12.2028 19.2043 11.5402 19.842C10.7693 20.5839 12.1728 21.4389 12.7219 20.5147C12.899 21.494 14.5551 21.372 14.0726 20.3361C13.6728 19.4777 13.8113 18.0952 13.8982 17.0168C14.2067 17.0017 14.5401 16.9036 14.8878 16.7134C16.4267 15.8712 17.6561 13.5487 17.6337 11.5262C17.6174 10.0513 16.9406 9.14336 15.9781 9.08646C15.9882 8.88597 15.9929 8.68247 15.9929 8.47816C15.9929 7.74202 15.9431 6.9727 15.8438 6.21826L18.5575 8.7923C18.5765 4.68277 16.8009 1.81546 14.3815 1.86488C13.5172 0.733812 12.305 0.494434 10.7466 2.05291C9.98077 1.28721 9.29946 0.953984 8.7015 0.94784Z" fill="#BEBEBE"/>
</svg>
