<svg width="20" height="20" viewBox="0 0 20 20" fill="none" xmlns="http://www.w3.org/2000/svg">
<mask id="mask0_1954_1273" style="mask-type:alpha" maskUnits="userSpaceOnUse" x="0" y="0" width="19" height="19">
<path d="M13.9056 14.1139C15.6731 12.3464 14.4947 6.45393 11.8431 3.80227C10.6647 2.62352 7.27639 0.118934 3.59347 3.80227C-0.0894428 7.48477 2.41514 10.8731 3.59347 12.0519C6.24514 14.7035 12.1376 15.8819 13.9056 14.1144V14.1139Z" fill="white" stroke="white" stroke-width="2" stroke-linecap="round" stroke-linejoin="round"/>
<path d="M17.0827 17.0832L14.166 14.1665" stroke="white" stroke-width="2"/>
<path d="M16.843 15.9592C16.4362 16.366 16.4362 17.0256 16.843 17.4324C17.2498 17.8392 17.9094 17.8392 18.3162 17.4324C18.723 17.0256 18.723 16.366 18.3162 15.9592C17.9094 15.5524 17.2498 15.5524 16.843 15.9592Z" fill="white"/>
<path d="M15.9602 16.843C15.5534 17.2498 15.5534 17.9094 15.9602 18.3162C16.367 18.723 17.0266 18.723 17.4334 18.3162C17.8401 17.9094 17.8401 17.2498 17.4334 16.843C17.0266 16.4362 16.367 16.4362 15.9602 16.843Z" fill="white"/>
<path d="M7.08333 8.33317C7.54357 8.33317 7.91667 7.96007 7.91667 7.49984C7.91667 7.0396 7.54357 6.6665 7.08333 6.6665C6.6231 6.6665 6.25 7.0396 6.25 7.49984C6.25 7.96007 6.6231 8.33317 7.08333 8.33317Z" fill="black"/>
<path d="M4.99935 9.58317C5.45959 9.58317 5.83268 9.21007 5.83268 8.74984C5.83268 8.2896 5.45959 7.9165 4.99935 7.9165C4.53911 7.9165 4.16602 8.2896 4.16602 8.74984C4.16602 9.21007 4.53911 9.58317 4.99935 9.58317Z" fill="black"/>
<path d="M7.08333 10.8332C7.54357 10.8332 7.91667 10.4601 7.91667 9.99984C7.91667 9.5396 7.54357 9.1665 7.08333 9.1665C6.6231 9.1665 6.25 9.5396 6.25 9.99984C6.25 10.4601 6.6231 10.8332 7.08333 10.8332Z" fill="black"/>
</mask>
<g mask="url(#mask0_1954_1273)">
<path d="M0 0H20V20H0V0Z" fill="#BEBEBE"/>
</g>
</svg>
