<svg width="22" height="22" viewBox="0 0 22 22" fill="none" xmlns="http://www.w3.org/2000/svg">
<path d="M20.1663 7.33312C20.1673 5.96187 19.656 4.6397 18.7327 3.62586C17.8095 2.61202 16.5407 1.97964 15.1754 1.85272C13.81 1.7258 12.4465 2.1135 11.3521 2.93978C10.2578 3.76607 9.51157 4.97135 9.2598 6.31929C8.73822 8.00596 8.26705 8.92446 8.00855 9.35254L5.7013 11.6598C5.61911 11.7421 5.55913 11.8439 5.52698 11.9556C5.49483 12.0674 5.49157 12.1855 5.51748 12.2989C5.5434 12.4123 5.59766 12.5172 5.67517 12.6039C5.75269 12.6906 5.85094 12.7562 5.96072 12.7946L4.0898 14.6665C3.6075 14.6736 3.13974 14.8327 2.75315 15.1212C2.36656 15.4097 2.08086 15.8128 1.93673 16.2731C1.7926 16.7334 1.79739 17.2275 1.95043 17.6849C2.10346 18.1424 2.39694 18.5399 2.78905 18.8208C2.93755 18.9271 3.0723 19.061 3.17864 19.2104C3.4598 19.6028 3.85769 19.8964 4.31556 20.0493C4.77344 20.2022 5.26791 20.2066 5.72844 20.0619C6.18898 19.9172 6.59206 19.6308 6.88019 19.2435C7.16832 18.8561 7.32678 18.3877 7.33297 17.905L9.20297 16.035C9.24081 16.1455 9.30614 16.2444 9.3928 16.3226C9.47946 16.4008 9.5846 16.4556 9.69831 16.4819C9.81202 16.5083 9.93057 16.5052 10.0428 16.473C10.155 16.4409 10.2571 16.3807 10.3396 16.2981L12.6533 13.9845C13.0869 13.725 14.0081 13.2557 15.6921 12.7378C16.9503 12.4986 18.0857 11.8278 18.9025 10.8412C19.7193 9.85461 20.1662 8.61395 20.1663 7.33312ZM7.86739 12.8331H9.1663V14.1275L6.30997 16.9829C6.19558 17.1011 6.10561 17.2408 6.04521 17.3938C5.98482 17.5468 5.95517 17.7103 5.95797 17.8748C5.95792 18.0689 5.89626 18.258 5.78188 18.4148C5.66749 18.5716 5.50629 18.688 5.32148 18.7473C5.13668 18.8067 4.93781 18.8058 4.75353 18.7449C4.56925 18.6839 4.40907 18.5661 4.29605 18.4083C4.10079 18.1367 3.86272 17.8986 3.59114 17.7034C3.43334 17.5904 3.31549 17.4302 3.25455 17.2459C3.19362 17.0616 3.19276 16.8627 3.25208 16.6779C3.31141 16.4931 3.42786 16.3319 3.58467 16.2175C3.74148 16.1032 3.93054 16.0415 4.12464 16.0415C4.39872 16.0415 4.74155 15.959 5.00922 15.6913L7.86739 12.8331Z" fill="#BEBEBE"/>
</svg>
