<svg width="24" height="24" viewBox="0 0 24 24" fill="none" xmlns="http://www.w3.org/2000/svg">
<g opacity="0.24">
<ellipse rx="3.34218" ry="1.76594" transform="matrix(0.714319 -0.69982 0.675135 0.737694 19.4195 4.64153)" fill="#585858"/>
<ellipse rx="3.28787" ry="1.79408" transform="matrix(0.999946 -0.0103858 0.00970204 0.999953 16.684 9.77156)" fill="#585858"/>
<ellipse rx="3.40079" ry="1.73453" transform="matrix(-0.0893704 -0.995999 0.995419 -0.0956138 14.3875 7.61006)" fill="#585858"/>
<ellipse rx="3.28787" ry="1.79408" transform="matrix(0.999946 -0.0103858 0.00970204 0.999953 12.9028 13.5665)" fill="#585858"/>
<ellipse rx="3.40079" ry="1.73453" transform="matrix(-0.0893704 -0.995999 0.995419 -0.0956138 10.6063 11.406)" fill="#585858"/>
<ellipse rx="3.28787" ry="1.79408" transform="matrix(0.999946 -0.0103858 0.00970204 0.999953 8.97892 17.505)" fill="#585858"/>
<ellipse rx="3.40079" ry="1.73453" transform="matrix(-0.0893704 -0.995999 0.995419 -0.0956138 6.68438 15.3435)" fill="#585858"/>
<ellipse rx="3.28787" ry="1.79408" transform="matrix(0.999946 -0.0103858 0.00970204 0.999953 5.32658 21.172)" fill="#585858"/>
<ellipse rx="3.40079" ry="1.73453" transform="matrix(-0.0893704 -0.995999 0.995419 -0.0956138 3.03008 19.0104)" fill="#585858"/>
</g>
</svg>
