<svg width="20" height="20" viewBox="0 0 20 20" fill="none" xmlns="http://www.w3.org/2000/svg">
<mask id="mask0_1954_5085" style="mask-type:alpha" maskUnits="userSpaceOnUse" x="2" y="1" width="16" height="18">
<path d="M8.81915 6.91408C9.50582 4.57783 12.2871 3.61075 14.2746 5.01742C15.9937 6.23325 16.2821 8.66992 14.8946 10.2537L13.5904 11.7428C11.4158 14.2255 8.6697 16.1417 5.58915 17.3262L4.10665 17.8966C3.88936 17.9799 3.64943 17.9827 3.43025 17.9045C3.21107 17.8263 3.02711 17.6722 2.91164 17.4702C2.79617 17.2681 2.75681 17.0314 2.80068 16.8029C2.84455 16.5743 2.96875 16.369 3.15082 16.2241L4.30915 15.3041C6.04451 13.9255 7.31135 12.0442 7.93623 9.91783L8.81915 6.91408Z" fill="white" stroke="white"/>
<path d="M12.4336 4.45173C12.5336 4.14804 12.7032 3.87188 12.9288 3.64525C13.1543 3.41861 13.4297 3.24776 13.7329 3.14627C14.0361 3.04478 14.3589 3.01547 14.6754 3.06066C14.9919 3.10586 15.2936 3.22431 15.5563 3.4066C15.819 3.58888 16.0355 3.82997 16.1887 4.11067C16.3418 4.39137 16.4273 4.70394 16.4384 5.02351C16.4494 5.34307 16.3858 5.6608 16.2524 5.95143C16.1191 6.24205 15.9197 6.49754 15.6703 6.69757" stroke="white"/>
<path d="M17.4987 1.6665L15.832 3.33317" stroke="white" stroke-linecap="round"/>
</mask>
<g mask="url(#mask0_1954_5085)">
<path d="M0 0H20V20H0V0Z" fill="#BEBEBE"/>
</g>
</svg>
