<svg width="24" height="24" viewBox="0 0 24 24" fill="none" xmlns="http://www.w3.org/2000/svg">
<path d="M13.5431 4.33215C13.2947 4.33215 13.0416 4.34762 12.7931 4.3734C11.3962 4.51965 9.74625 5.48434 8.57438 6.76872C7.66031 7.77653 7.06031 8.95309 6.99938 10.0406L7.35563 10.1953C7.65562 9.77809 8.27906 8.96247 9.11812 8.12809C10.2994 6.95153 11.8931 5.7234 13.6416 5.73747C15.4041 5.75622 17.4338 6.58122 19.2619 7.76247C20.1431 8.33434 20.9728 8.9859 21.6994 9.67965C20.0869 6.25309 16.7306 4.31434 13.5431 4.33215ZM13.6322 6.58122C12.3056 6.56715 10.8291 7.61715 9.71344 8.72809C8.59781 9.83434 7.8525 10.95 7.8525 10.95L7.65563 11.2406L6.18375 10.6125C5.81344 11.0765 5.66344 11.7515 5.68219 12.4265C5.70094 13.0218 5.86969 13.6031 6.04781 13.95L7.35563 13.3875L7.54781 13.6734C9.28219 16.2234 12.3056 17.5828 14.94 17.6812C17.5837 17.3531 20.9728 16.4297 22.8759 13.7437L21.1884 13.6265L22.6838 12.1687C22.2244 11.4468 21.5681 10.6968 20.7947 9.9984C20.8088 10.05 20.8134 10.1062 20.8134 10.1625C20.8134 10.575 20.4759 10.9125 20.0634 10.9125C19.6509 10.9125 19.3134 10.575 19.3134 10.1625C19.3134 9.74997 19.6509 9.41247 20.0634 9.41247H20.1056C19.6931 9.07965 19.2572 8.7609 18.8025 8.47028C17.0681 7.34997 15.1322 6.59528 13.6322 6.58122ZM17.7431 8.96247L18.4837 9.36559C17.2369 11.6672 17.4431 13.8703 18.9244 15.3937L18.315 15.9843C16.5712 14.189 16.365 11.5078 17.7431 8.96247ZM2.01 9.29059C2.01 10.289 1.91906 11.2312 1.125 12.2531C1.49437 12.5718 1.75031 12.9375 1.90078 13.3593C2.06812 13.8328 2.11969 14.3531 2.14547 14.9625C2.5725 15.014 3.25688 14.9484 3.92719 14.7656C4.39734 14.6343 4.86188 14.4515 5.24156 14.264C4.99313 13.7672 4.85719 13.1297 4.83844 12.45C4.815 11.6906 4.965 10.8656 5.42438 10.214C5.01656 9.98434 4.55297 9.78278 4.07719 9.63747C3.36562 9.45934 2.6925 9.29059 2.01 9.29059ZM20.0634 11.6625C20.4759 11.6625 20.8134 12 20.8134 12.4125C20.8134 12.825 20.4759 13.1625 20.0634 13.1625C19.6509 13.1625 19.3134 12.825 19.3134 12.4125C19.3134 12 19.6509 11.6625 20.0634 11.6625ZM7.09313 14.4797C7.16344 14.7656 7.29938 15.075 7.49625 15.4078C7.87594 16.05 8.48063 16.7343 9.2025 17.3578C10.6463 18.6 12.5728 19.5797 14.04 19.664C15.0806 19.725 16.2431 19.1343 17.2744 18.3093C17.3869 18.2203 17.4994 18.1265 17.6072 18.0328C16.6931 18.1734 15.7791 18.5203 14.9447 18.525C12.1556 18.4359 9.03375 17.0765 7.09313 14.4797ZM19.7541 17.2734C19.4212 17.4234 19.0837 17.5593 18.7463 17.6765C18.8353 18.1359 18.8072 18.5812 18.7556 18.9984C19.1072 18.8531 19.4306 18.6468 19.7213 18.3234C19.8384 18.0047 19.8197 17.6578 19.7541 17.2734Z" fill="#BEBEBE"/>
</svg>
