<svg width="24" height="24" viewBox="0 0 24 24" fill="none" xmlns="http://www.w3.org/2000/svg">
<line x1="1.33801" y1="-1.33801" x2="14.9176" y2="-1.33801" transform="matrix(0.0154612 0.99988 -0.99989 0.0148446 10.4492 2)" stroke="#BEBEBE" stroke-width="2.67602" stroke-linecap="round"/>
<line x1="1.33801" y1="-1.33801" x2="14.9192" y2="-1.33801" transform="matrix(-0.11018 0.993912 -0.994104 -0.108427 13.7285 3.47754)" stroke="#BEBEBE" stroke-width="2.67602" stroke-linecap="round"/>
<line x1="1.45964" y1="-1.45964" x2="14.7979" y2="-1.45964" transform="matrix(-0.150754 0.988571 -0.988858 -0.148859 16.4512 5)" stroke="#BEBEBE" stroke-width="2.91929" stroke-linecap="round"/>
<line x1="1.33801" y1="-1.33801" x2="14.92" y2="-1.33801" transform="matrix(0.133665 0.991027 -0.991309 0.13155 7.2207 3.72363)" stroke="#BEBEBE" stroke-width="2.67602" stroke-linecap="round"/>
<line x1="1.45964" y1="-1.45964" x2="14.8031" y2="-1.45964" transform="matrix(0.233444 0.97237 -0.973218 0.229886 3.99219 6.18652)" stroke="#BEBEBE" stroke-width="2.91929" stroke-linecap="round"/>
<path d="M17.6216 20.6994L19.9781 12.1899C20.3718 10.7683 18.8948 9.55258 17.5754 10.2123L13.3596 12.3202C13.1231 12.4384 12.8624 12.5 12.598 12.5H10.8807C10.63 12.5 10.3824 12.4447 10.1556 12.3379L5.80959 10.2928C4.42441 9.6409 2.94957 11.0055 3.4921 12.4371L6.67989 20.8484C6.93068 21.5102 7.5646 21.9478 8.27228 21.9478H15.9804C16.7459 21.9478 17.4173 21.4371 17.6216 20.6994Z" fill="#BEBEBE"/>
</svg>
