<svg width="24" height="24" viewBox="0 0 24 24" fill="none" xmlns="http://www.w3.org/2000/svg">
<path d="M7.79918 20C7.26585 20 6.80751 19.825 6.42418 19.475C6.04085 19.125 5.83251 18.6833 5.79918 18.15L5.29918 11.55H18.6992L18.1992 18.15C18.1658 18.6833 17.9575 19.125 17.5742 19.475C17.1908 19.825 16.7325 20 16.1992 20H7.79918ZM4.62418 10L2.72418 8.15C2.54085 7.96667 2.43685 7.73767 2.41218 7.463C2.38685 7.18767 2.48251 6.95 2.69918 6.75C2.88251 6.56667 3.11585 6.475 3.39918 6.475C3.68251 6.475 3.91585 6.56667 4.09918 6.75L4.99918 7.65L4.94918 7.05L8.42418 3.575C8.60751 3.39167 8.81985 3.25 9.06118 3.15C9.30318 3.05 9.55751 3 9.82418 3H14.1742C14.4408 3 14.6952 3.05 14.9372 3.15C15.1785 3.25 15.3908 3.39167 15.5742 3.575L19.0492 7.05L18.9992 7.65L19.8992 6.75C20.0825 6.56667 20.3032 6.45 20.5612 6.4C20.8198 6.35 21.0658 6.46667 21.2992 6.75C21.4825 6.96667 21.5742 7.204 21.5742 7.462C21.5742 7.72067 21.4742 7.95 21.2742 8.15L19.3742 10H4.62418Z" fill="#BEBEBE"/>
</svg>
