<svg width="24" height="24" viewBox="0 0 24 24" fill="none" xmlns="http://www.w3.org/2000/svg">
<path d="M18 15V19C18 20.65 16.65 22 15 22H9C7.35 22 6 20.65 6 19V13.98L9.89 14C10.62 14 11.34 14.17 12 14.5C12.66 14.83 13.38 15 14.12 15H18Z" fill="#BEBEBE"/>
<path opacity="0.4" d="M18 10.8302V15.0002H14.12C13.38 15.0002 12.66 14.8302 12 14.5002C11.3451 14.1717 10.6226 14.0004 9.89 14.0002L6 13.9802V10.8302C6 10.3702 6.26 9.74016 6.59 9.41016L8.71 7.29016C8.89 7.11016 9 6.85016 9 6.59016V4.91016C9.16 4.97016 9.32 5.00016 9.5 5.00016H14.5C14.68 5.00016 14.84 4.97016 15 4.91016V6.59016C15 6.85016 15.11 7.11016 15.29 7.29016L17.41 9.41016C17.74 9.74016 18 10.3702 18 10.8302Z" fill="#BEBEBE"/>
<path d="M14.4997 2H9.4997C9.14643 2.00006 8.80455 2.12497 8.53445 2.35266C8.26435 2.58035 8.08341 2.89617 8.02359 3.24433C7.96377 3.59249 8.02892 3.95059 8.20753 4.25538C8.38613 4.56017 8.66671 4.79203 8.9997 4.91C9.1597 4.97 9.3197 5 9.4997 5H14.4997C14.6797 5 14.8397 4.97 14.9997 4.91C15.3327 4.79203 15.6133 4.56017 15.7919 4.25538C15.9705 3.95059 16.0356 3.59249 15.9758 3.24433C15.916 2.89617 15.735 2.58035 15.4649 2.35266C15.1948 2.12497 14.853 2.00006 14.4997 2Z" fill="#BEBEBE"/>
</svg>
