<svg width="20" height="20" viewBox="0 0 20 20" fill="none" xmlns="http://www.w3.org/2000/svg">
<path d="M16.6667 10.8333C17.125 10.8333 17.5 10.4583 17.5 10C17.5 9.54167 17.125 9.16667 16.6667 9.16667H15.8333V4.16667H16.6667C17.125 4.16667 17.5 3.79167 17.5 3.33333C17.5 2.875 17.125 2.5 16.6667 2.5H3.33333C2.875 2.5 2.5 2.875 2.5 3.33333C2.5 3.79167 2.875 4.16667 3.33333 4.16667H4.16667V9.16667H3.33333C2.875 9.16667 2.5 9.54167 2.5 10C2.5 10.4583 2.875 10.8333 3.33333 10.8333H4.16667V15.8333H3.33333C2.875 15.8333 2.5 16.2083 2.5 16.6667C2.5 17.125 2.875 17.5 3.33333 17.5H16.6667C17.125 17.5 17.5 17.125 17.5 16.6667C17.5 16.2083 17.125 15.8333 16.6667 15.8333H15.8333V10.8333H16.6667ZM10 13.3333C8.61667 13.3333 7.5 12.2333 7.5 10.875C7.5 9.90833 7.84167 9.55833 9.36667 7.80833C9.44482 7.71814 9.54144 7.64581 9.65 7.59623C9.75855 7.54666 9.87649 7.521 9.99583 7.521C10.1152 7.521 10.2331 7.54666 10.3417 7.59623C10.4502 7.64581 10.5469 7.71814 10.625 7.80833C12.1417 9.55 12.4917 9.90833 12.4917 10.875C12.5 12.2333 11.3833 13.3333 10 13.3333Z" fill="#BEBEBE"/>
</svg>
