<svg width="22" height="18" viewBox="0 0 22 18" fill="none" xmlns="http://www.w3.org/2000/svg">
<g clip-path="url(#clip0_1954_2046)">
<path d="M14.3669 9.00008C13.7965 9.00008 13.2599 8.68367 12.9696 8.17742L10.7995 4.42977L8.63273 8.17742C8.3391 8.68719 7.80248 9.00359 7.2321 9.00359C7.08023 9.00359 6.92835 8.9825 6.78323 8.9368L2.15948 7.55867V13.8165C2.15948 14.3333 2.49698 14.7833 2.97623 14.9063L10.273 16.8083C10.6172 16.8962 10.9784 16.8962 11.3192 16.8083L18.6227 14.9063C19.102 14.7798 19.4395 14.3298 19.4395 13.8165V7.55867L14.8157 8.93328C14.6706 8.97898 14.5187 9.00008 14.3669 9.00008ZM21.5421 5.05555L19.804 1.44149C19.6994 1.22352 19.4732 1.09695 19.2404 1.12859L10.7995 2.25008L13.8944 7.59734C14.0226 7.81883 14.2791 7.9243 14.5187 7.85398L21.1979 5.86766C21.532 5.7657 21.694 5.37899 21.5421 5.05555ZM1.79498 1.44149L0.0568504 5.05555C-0.0983996 5.37899 0.0669754 5.7657 0.397725 5.86414L7.07685 7.85047C7.31648 7.92078 7.57298 7.81531 7.70123 7.59383L10.7995 2.25008L2.35523 1.12859C2.12235 1.10047 1.8996 1.22352 1.79498 1.44149Z" fill="#BEBEBE"/>
</g>
<defs>
<clipPath id="clip0_1954_2046">
<rect width="21.6" height="18" fill="white"/>
</clipPath>
</defs>
</svg>
