<svg width="22" height="22" viewBox="0 0 22 22" fill="none" xmlns="http://www.w3.org/2000/svg">
<path d="M12.3761 9.62516C12.3761 13.2918 13.7511 12.3752 14.2094 14.6668C14.679 17.015 12.7143 19.2502 10.3134 19.2502C7.91257 19.2502 5.95915 17.0615 5.95942 14.6668C5.95942 12.5542 7.1052 11.2293 8.25109 10.5418C9.39697 9.85433 10.5428 9.16683 10.5428 7.3335" stroke="#BEBEBE" stroke-width="2" stroke-linecap="round" stroke-linejoin="round"/>
<path d="M15.125 10.542C15.5833 10.542 17.6458 11.4587 17.875 13.7503C18.0823 15.8234 16.7292 19.0212 11 19.2503" stroke="#BEBEBE" stroke-width="2" stroke-linecap="round"/>
<path d="M7.33464 18.3335C3.73804 18.3335 1.83525 16.1779 1.83464 13.7502C1.83464 11.1352 5.5013 8.7085 6.41797 8.25016C7.33464 7.79183 7.79297 6.89703 7.79297 5.9585V4.12516C7.79297 3.49254 8.07701 3.2085 8.70964 3.2085H12.8346C13.3574 3.2085 13.7513 3.66683 13.7513 4.12516V5.50016C13.7513 6.44023 14.333 7.1835 15.1663 7.59862C15.5145 7.77238 15.8818 7.93849 16.2572 8.09206C17.7745 8.71275 20.168 9.69202 20.168 12.3752C20.168 14.6123 18.6083 16.5002 17.418 16.5002" stroke="#BEBEBE" stroke-width="2" stroke-linecap="round"/>
</svg>
