<svg width="24" height="24" viewBox="0 0 24 24" fill="none" xmlns="http://www.w3.org/2000/svg">
<path d="M12.6507 1.06348L12.0273 3.12691L14.1648 3.77004L18.407 5.04363L19.0257 2.98066L12.6507 1.06348ZM12.5054 4.15254L11.2539 8.30613L10.9961 8.35301C10.9961 8.35301 10.2039 8.48895 9.36481 8.79832C8.94762 8.95301 8.52106 9.14988 8.19762 9.3702C7.8695 9.59519 7.66325 9.84363 7.59294 10.0686L4.78512 19.4014C4.757 19.4905 4.78044 19.6218 4.982 19.8608C5.18825 20.0999 5.55387 20.3858 6.02731 20.6718C6.97887 21.2343 8.35231 21.7968 9.76325 22.2186C11.1742 22.6452 12.632 22.9358 13.7336 22.9874C14.2867 23.0155 14.7507 22.978 15.0507 22.8889C15.3554 22.8046 15.4445 22.7061 15.4726 22.6171L18.2804 13.2796C18.3461 13.0546 18.3086 12.7358 18.1586 12.3702C18.0132 11.9999 17.7648 11.6014 17.5023 11.2452C16.9726 10.528 16.382 9.97488 16.382 9.97488L16.1945 9.79207L17.4414 5.63426L12.5054 4.15254ZM14.2726 5.44676H14.3336C14.4789 5.44676 14.6242 5.47019 14.7742 5.51707C15.8429 5.83582 16.3023 7.10144 15.9507 8.26863C15.5992 9.43582 14.5117 10.2327 13.4476 9.91395C12.3836 9.59519 11.9195 8.32957 12.2711 7.16238C12.5664 6.17801 13.382 5.45613 14.2726 5.44676ZM14.3289 6.29051C13.8461 6.28113 13.2929 6.68895 13.0773 7.40613C12.8336 8.22176 13.1711 8.94832 13.6914 9.1077C14.2117 9.26238 14.8961 8.84051 15.1445 8.02488C15.3882 7.20926 15.0507 6.4827 14.5304 6.32332C14.4648 6.30457 14.3945 6.2952 14.3289 6.29051ZM10.8461 10.7155C10.9023 10.7155 10.9586 10.7155 11.0148 10.7202C11.6851 10.7436 12.407 10.8796 13.1101 11.0905C14.0523 11.3718 14.9429 11.7889 15.5992 12.3093C15.9273 12.5718 16.1992 12.8577 16.3726 13.1952C16.5507 13.528 16.6164 13.9264 16.4992 14.3108L16.4945 14.3296L13.4617 21.6702L6.98356 19.7249L8.50231 11.9483L8.507 11.9249L8.51169 11.9061C8.62419 11.5264 8.90075 11.2311 9.22887 11.0436C9.56169 10.8608 9.94606 10.7718 10.3632 10.7343C10.5226 10.7202 10.682 10.7155 10.8461 10.7155ZM10.8414 11.5593C10.7007 11.5593 10.5648 11.5639 10.4382 11.5733C10.1007 11.6061 9.82419 11.6811 9.64137 11.7843C9.45856 11.8827 9.3695 11.9905 9.32262 12.1405L8.69919 15.3374C8.98512 15.0046 9.36012 14.7327 9.76325 14.5264C10.3211 14.2405 10.9492 14.0718 11.5492 14.0718C11.5867 14.0718 11.6242 14.0718 11.6617 14.0764C11.6476 13.8186 11.6148 13.5702 11.5586 13.378L12.3648 13.1436C12.4679 13.4952 12.5054 13.8796 12.5195 14.2311C13.0398 14.4233 13.5273 14.7796 13.907 15.2202C14.2726 15.6421 14.5586 16.1577 14.5961 16.7108L15.6929 14.0577C15.7351 13.903 15.7211 13.7671 15.6273 13.5843C15.5289 13.3968 15.3414 13.1811 15.0742 12.9702C14.5445 12.5483 13.7242 12.1546 12.8711 11.8968C12.2242 11.7046 11.5586 11.5874 10.982 11.5639C10.9351 11.5593 10.8882 11.5593 10.8414 11.5593ZM11.4507 14.9249C11.0289 14.9436 10.5554 15.0702 10.1429 15.2764C9.55231 15.5764 9.12106 16.0358 9.02262 16.4999C8.95231 16.8655 9.13512 17.3483 9.49606 17.7608C9.857 18.178 10.382 18.5014 10.7945 18.5811C11.3054 18.6796 12.0273 18.5577 12.6226 18.253C13.2132 17.953 13.6445 17.4936 13.7429 17.0249C13.8132 16.6639 13.6351 16.1858 13.2742 15.7686C13.0445 15.5061 12.7539 15.2811 12.4632 15.1311C12.482 15.1733 12.5054 15.2249 12.5429 15.2811C12.6507 15.4546 12.8476 15.6655 13.0117 15.9514L12.2804 16.3733C12.182 16.2046 11.9992 16.003 11.8304 15.7358C11.6101 15.9374 11.3711 16.1296 11.1039 16.3171L10.6257 15.6233C10.9398 15.403 11.207 15.1686 11.4507 14.9249ZM8.29606 17.3999L7.95856 19.1343L12.9742 20.6389L13.9164 18.3514C13.6539 18.6186 13.3398 18.8343 13.0023 19.0077C12.2617 19.3827 11.3945 19.5561 10.6351 19.4061C9.96481 19.2796 9.332 18.8624 8.85856 18.3139C8.6195 18.0421 8.42262 17.7327 8.29606 17.3999Z" fill="#BEBEBE"/>
</svg>
