<svg width="22" height="22" viewBox="0 0 22 22" fill="none" xmlns="http://www.w3.org/2000/svg">
<path d="M13.6698 11.2275C14.7883 10.8332 15.7618 10.1106 16.4631 9.15423C17.1643 8.19783 17.5607 7.05209 17.6004 5.8668H4.40043C4.43984 7.0377 4.82805 8.17015 5.5153 9.11898C6.20255 10.0678 7.15751 10.7897 8.25776 11.1923L7.22083 13.2647C6.58044 13.1535 5.922 13.215 5.31327 13.4428C4.70454 13.6707 4.16751 14.0566 3.75743 14.5608C3.34735 15.0651 3.07905 15.6695 2.98012 16.3119C2.88119 16.9543 2.95522 17.6115 3.19458 18.2157C3.43394 18.82 3.82999 19.3496 4.34197 19.75C4.85396 20.1504 5.46339 20.4072 6.10754 20.4939C6.7517 20.5805 7.40732 20.494 8.00694 20.2432C8.60655 19.9924 9.12851 19.5863 9.51909 19.0668H15.7128L16.2042 20.1184C16.2874 20.2944 16.4372 20.4301 16.6205 20.4958C16.8038 20.5613 17.0057 20.5514 17.1817 20.4682C17.3577 20.385 17.4934 20.2352 17.559 20.0519C17.6246 19.8686 17.6147 19.6667 17.5315 19.4907L13.6698 11.2275ZM6.60043 18.7001C6.1142 18.7001 5.64788 18.507 5.30407 18.1632C4.96025 17.8193 4.76709 17.353 4.76709 16.8668C4.76709 16.3806 4.96025 15.9143 5.30407 15.5704C5.64788 15.2266 6.1142 15.0335 6.60043 15.0335C7.08666 15.0335 7.55297 15.2266 7.89679 15.5704C8.24061 15.9143 8.43376 16.3806 8.43376 16.8668C8.43376 17.353 8.24061 17.8193 7.89679 18.1632C7.55297 18.507 7.08666 18.7001 6.60043 18.7001ZM10.1938 17.6001C10.3418 16.8786 10.2683 16.1291 9.98269 15.4501C9.69712 14.7712 9.21291 14.1944 8.59363 13.7956L9.68043 11.6205C10.5267 11.7733 11.3935 11.7733 12.2398 11.6205L15.0264 17.5899L10.1938 17.6001ZM6.96709 1.4668C6.86985 1.4668 6.77658 1.50543 6.70782 1.57419C6.63906 1.64295 6.60043 1.73622 6.60043 1.83346C6.60043 2.5668 5.86709 2.5668 5.86709 2.5668C4.40043 2.5668 4.40043 4.03346 4.40043 4.03346C4.40043 4.13071 4.43906 4.22397 4.50782 4.29274C4.57659 4.3615 4.66985 4.40013 4.76709 4.40013C4.86434 4.40013 4.9576 4.3615 5.02637 4.29274C5.09513 4.22397 5.13376 4.13071 5.13376 4.03346C5.13376 3.30013 5.86709 3.30013 5.86709 3.30013C7.33376 3.30013 7.33376 1.83346 7.33376 1.83346C7.33376 1.73622 7.29513 1.64295 7.22637 1.57419C7.1576 1.50543 7.06434 1.4668 6.96709 1.4668ZM9.90043 1.4668C9.80318 1.4668 9.70992 1.50543 9.64115 1.57419C9.57239 1.64295 9.53376 1.73622 9.53376 1.83346C9.53376 2.5668 8.80043 2.5668 8.80043 2.5668C7.33376 2.5668 7.33376 4.03346 7.33376 4.03346C7.33376 4.13071 7.37239 4.22397 7.44115 4.29274C7.50992 4.3615 7.60318 4.40013 7.70043 4.40013C7.79767 4.40013 7.89094 4.3615 7.9597 4.29274C8.02846 4.22397 8.06709 4.13071 8.06709 4.03346C8.06709 3.30013 8.80043 3.30013 8.80043 3.30013C10.2671 3.30013 10.2671 1.83346 10.2671 1.83346C10.2671 1.73622 10.2285 1.64295 10.1597 1.57419C10.0909 1.50543 9.99767 1.4668 9.90043 1.4668ZM12.8338 1.4668C12.7365 1.4668 12.6433 1.50543 12.5745 1.57419C12.5057 1.64295 12.4671 1.73622 12.4671 1.83346C12.4671 2.5668 11.7338 2.5668 11.7338 2.5668C10.2671 2.5668 10.2671 4.03346 10.2671 4.03346C10.2671 4.13071 10.3057 4.22397 10.3745 4.29274C10.4433 4.3615 10.5365 4.40013 10.6338 4.40013C10.731 4.40013 10.8243 4.3615 10.893 4.29274C10.9618 4.22397 11.0004 4.13071 11.0004 4.03346C11.0004 3.30013 11.7338 3.30013 11.7338 3.30013C13.2004 3.30013 13.2004 1.83346 13.2004 1.83346C13.2004 1.73622 13.1618 1.64295 13.093 1.57419C13.0243 1.50543 12.931 1.4668 12.8338 1.4668ZM15.7671 1.4668C15.6698 1.4668 15.5766 1.50543 15.5078 1.57419C15.4391 1.64295 15.4004 1.73622 15.4004 1.83346C15.4004 2.5668 14.6671 2.5668 14.6671 2.5668C13.2004 2.5668 13.2004 4.03346 13.2004 4.03346C13.2004 4.13071 13.2391 4.22397 13.3078 4.29274C13.3766 4.3615 13.4698 4.40013 13.5671 4.40013C13.6643 4.40013 13.7576 4.3615 13.8264 4.29274C13.8951 4.22397 13.9338 4.13071 13.9338 4.03346C13.9338 3.30013 14.6671 3.30013 14.6671 3.30013C16.1338 3.30013 16.1338 1.83346 16.1338 1.83346C16.1338 1.73622 16.0951 1.64295 16.0264 1.57419C15.9576 1.50543 15.8643 1.4668 15.7671 1.4668ZM18.7004 1.4668C18.6032 1.4668 18.5099 1.50543 18.4412 1.57419C18.3724 1.64295 18.3338 1.73622 18.3338 1.83346C18.3338 2.5668 17.6004 2.5668 17.6004 2.5668C16.1338 2.5668 16.1338 4.03346 16.1338 4.03346C16.1338 4.13071 16.1724 4.22397 16.2412 4.29274C16.3099 4.3615 16.4032 4.40013 16.5004 4.40013C16.5977 4.40013 16.6909 4.3615 16.7597 4.29274C16.8285 4.22397 16.8671 4.13071 16.8671 4.03346C16.8671 3.30013 17.6004 3.30013 17.6004 3.30013C19.0671 3.30013 19.0671 1.83346 19.0671 1.83346C19.0671 1.73622 19.0285 1.64295 18.9597 1.57419C18.8909 1.50543 18.7977 1.4668 18.7004 1.4668Z" fill="#BEBEBE"/>
</svg>
