<svg width="22" height="22" viewBox="0 0 22 22" fill="none" xmlns="http://www.w3.org/2000/svg">
<path d="M15.5468 1.76604C15.3018 1.67796 15.0182 1.60319 14.7776 1.6178C14.1632 1.66163 13.1921 2.44538 12.4444 3.27897C12.0276 3.74003 11.7225 4.13921 11.4948 4.45589C11.8686 4.54612 12.1995 4.67073 12.5218 4.78675C13.0202 4.12202 13.6475 3.32366 14.5327 3.04436C15.0526 2.88323 15.6542 2.94983 16.2214 3.32839C16.7585 3.68718 17.287 4.31409 17.8413 5.2637C18.5546 5.38831 19.0444 5.42268 19.1862 4.718C19.0401 4.54612 18.4815 3.88999 17.6651 3.15909C17.0034 2.56956 16.2171 2.02171 15.5468 1.76604ZM6.32996 4.09624C5.84871 4.2896 5.46199 4.61917 5.21707 5.16917C3.27058 9.54768 2.71844 12.8047 2.82758 14.9617C2.88 16.0403 3.1 16.8395 3.37801 17.3637C3.68652 17.8664 3.90738 18.1114 4.41785 18.1973C4.28121 17.209 4.38348 16.225 4.51668 15.2969L5.07957 16.2422C5.0409 17.0114 4.92918 17.57 5.25574 18.2703C5.68543 19.0567 6.6866 19.7227 7.67058 19.9805C8.16043 20.1137 8.64598 20.1481 9.0284 20.075C9.79324 19.9117 10.5065 18.8418 10.7343 18.4594L11.6624 18.1285C11.237 18.8289 10.8245 19.5379 10.412 20.1438C10.485 20.1739 10.5624 20.2039 10.6354 20.2426C11.035 20.4188 11.4046 20.436 11.8557 20.2512C12.2983 20.0664 12.8225 19.6582 13.4112 18.9492C14.5843 17.527 15.9979 14.9446 17.7081 10.8711C18.3655 9.30276 17.7725 8.1469 16.8401 7.42503C16.4491 7.14143 16.071 6.93948 15.6327 6.83206C15.8819 7.96214 15.6069 9.13518 15.3663 10.1149L14.7046 9.34573C14.7905 8.7012 15.1858 7.34768 14.7261 6.93948C13.5401 6.00276 11.6151 5.08753 10.0554 5.04456C9.42801 5.04026 8.98113 5.19065 8.71902 5.54729C8.43972 5.93831 8.16472 6.38089 7.90691 6.86214L6.81551 7.3262C7.31824 6.39808 8.17332 4.65354 9.17449 4.35276C8.30223 3.92007 7.19793 3.7628 6.32996 4.09624Z" fill="#BEBEBE"/>
</svg>
