<svg width="24" height="24" viewBox="0 0 24 24" fill="none" xmlns="http://www.w3.org/2000/svg">
<mask id="mask0_1954_3944" style="mask-type:alpha" maskUnits="userSpaceOnUse" x="5" y="1" width="14" height="22">
<path d="M6 9.787C6 9.59958 6.05267 9.41593 6.152 9.257L8.5 5.5H15.5L17.848 9.257C17.9473 9.41593 18 9.59958 18 9.787V21C18 21.2652 17.8946 21.5196 17.7071 21.7071C17.5196 21.8946 17.2652 22 17 22H7C6.73478 22 6.48043 21.8946 6.29289 21.7071C6.10536 21.5196 6 21.2652 6 21V9.787Z" fill="white" stroke="white" stroke-linecap="round" stroke-linejoin="round"/>
<path d="M9.5 16.5V12L12 15L14.5 12V16.5" stroke="black" stroke-width="0.5" stroke-linecap="round" stroke-linejoin="round"/>
<path d="M8.5 2H15.5V5.5H8.5V2Z" stroke="white" stroke-linecap="round" stroke-linejoin="round"/>
</mask>
<g mask="url(#mask0_1954_3944)">
<path d="M0 0H24V24H0V0Z" fill="#BEBEBE"/>
</g>
</svg>
