<svg width="24" height="24" viewBox="0 0 24 24" fill="none" xmlns="http://www.w3.org/2000/svg">
<path d="M12.2006 3.34734C11.615 3.35578 11.1096 3.67687 10.5455 4.11201C7.53656 6.43237 3.84047 9.64987 2.80659 11.9064C2.41781 11.3903 1.06341 11.5043 1.06341 12.2184C1.06341 12.8311 2.00583 13.0006 2.54437 12.7385C2.51555 12.9416 2.52 13.1313 2.56055 13.3068C2.26209 13.3951 2.0318 13.5878 2.0318 13.8824C2.0318 14.5275 3.07664 14.6828 3.59475 14.3586C3.83638 14.4914 4.08368 14.6135 4.33594 14.7248C4.2975 14.7957 4.27734 14.8765 4.27734 14.9665C4.27734 15.511 5.02116 15.7055 5.565 15.5583C5.55816 15.5916 5.55469 15.6273 5.55469 15.6638C5.55469 16.5213 7.40184 16.5136 7.40184 15.6638C7.40184 15.6569 7.40063 15.6501 7.40044 15.6433C8.06958 15.7715 8.7652 15.8673 9.47606 15.9318C9.61683 16.6031 11.0069 16.6307 11.269 16.0285C11.9737 16.0421 12.6829 16.0285 13.3857 15.9875C13.3793 16.02 13.374 16.0545 13.374 16.09C13.374 16.7542 14.4827 16.8987 14.9824 16.5353C15.5313 17.35 17.6074 17.1963 17.6074 16.0959C17.6074 15.9879 17.5883 15.8893 17.5517 15.8C18.0001 16.0111 18.6097 16.0449 19.1103 15.9011C19.2246 16.6749 20.9517 16.6393 20.9517 15.8175C20.9517 15.3755 20.4528 15.1694 19.9731 15.1891C20.0002 15.1049 20.0156 15.0142 20.0156 14.9167C20.0156 14.83 20.0034 14.7494 19.9818 14.6735C20.2201 14.58 20.4495 14.4813 20.6689 14.3791C21.2427 14.1117 21.4935 13.6793 21.498 13.1339C22.0386 13.3857 22.9658 13.2074 22.9658 12.6052C22.9658 11.9275 21.7909 11.8004 21.3149 12.1994C20.4453 9.77878 16.6629 6.15468 13.7783 3.98746C13.1606 3.5234 12.6561 3.34078 12.2006 3.34734ZM22.4678 14.1799C22.0059 14.1819 21.5435 14.3944 21.5435 14.8113C21.5435 15.6688 23.3907 15.6611 23.3907 14.8113C23.3907 14.3863 22.9297 14.1779 22.4678 14.1799H22.4678ZM1.63922 14.7219C1.17731 14.7239 0.714844 14.9364 0.714844 15.3532C0.714844 16.2108 2.562 16.203 2.562 15.3532C2.562 14.9283 2.10103 14.7199 1.63917 14.7219L1.63922 14.7219ZM3.76753 16.0549C3.2655 16.0571 2.763 16.2807 2.72897 16.7184C2.241 16.6936 1.72116 16.9049 1.72116 17.3468C1.72116 18.1597 3.38072 18.1952 3.55364 17.4728C4.13419 17.5474 4.80755 17.3114 4.80755 16.7668C4.80755 16.2884 4.28742 16.0526 3.76748 16.0549H3.76753ZM7.94972 16.5426C7.63767 16.5441 7.32534 16.6411 7.15566 16.8327C6.52322 16.6996 5.70844 16.9394 5.70844 17.5402C5.70844 18.4504 7.47502 18.5328 7.82517 17.8083C8.32458 17.8491 8.87255 17.6372 8.87255 17.1741C8.87255 16.7491 8.41162 16.5406 7.94977 16.5426H7.94972ZM12.1303 16.6188C11.6685 16.6209 11.2061 16.8334 11.2061 17.2502C11.2061 18.1078 13.0547 18.1001 13.0547 17.2502C13.0547 16.8253 12.5922 16.6169 12.1303 16.6188ZM22.0034 16.9031C21.3964 16.9057 20.7891 17.1857 20.7891 17.7337C20.7891 18.8607 23.2162 18.8505 23.2162 17.7336C23.2162 17.1752 22.6105 16.9004 22.0034 16.9031ZM18.479 17.2371C18.0171 17.239 17.5546 17.4515 17.5546 17.8683C17.5546 18.7259 19.4033 18.7182 19.4033 17.8683C19.4033 17.4434 18.9408 17.235 18.4789 17.237L18.479 17.2371ZM9.98137 17.8816C9.45178 17.8838 8.92233 18.1272 8.92233 18.6051C8.92233 19.1905 9.67261 19.4234 10.2803 19.3112C10.6011 20.188 12.6665 20.0997 12.6665 19.0694C12.6665 18.3561 11.6771 18.1077 10.9613 18.3063C10.7946 18.0201 10.3882 17.8798 9.98137 17.8815V17.8816ZM15.6928 18.2067C15.4017 18.208 15.1095 18.2931 14.9341 18.4601C14.3905 18.2286 13.4913 18.4113 13.4913 18.9933C13.4912 19.6917 14.7165 19.8154 15.1714 19.3786C15.715 19.6141 16.6157 19.4314 16.6157 18.8381C16.6157 18.4131 16.1547 18.2047 15.6928 18.2067L15.6928 18.2067ZM4.42688 18.3269C3.89719 18.3291 3.36628 18.5725 3.36628 19.0505C3.36628 20.0338 5.48597 20.025 5.48597 19.0505C5.48597 18.5632 4.95647 18.3245 4.42688 18.3269V18.3269ZM20.1328 18.9756C19.6129 18.978 19.0928 19.2169 19.0928 19.6861C19.0928 20.6515 21.1728 20.6429 21.1728 19.6861C21.1728 19.2077 20.6528 18.9734 20.1328 18.9756V18.9756ZM7.44581 19.0621C6.91612 19.0644 6.38672 19.3077 6.38672 19.7857C6.38672 20.7691 8.50491 20.7603 8.50491 19.7857C8.50491 19.2985 7.97541 19.0598 7.44581 19.0621Z" fill="#BEBEBE"/>
</svg>
