<svg width="20" height="20" viewBox="0 0 20 20" fill="none" xmlns="http://www.w3.org/2000/svg">
<g clip-path="url(#clip0_1954_17596)">
<path d="M9.99935 18.3334C14.6017 18.3334 18.3327 15.2554 18.3327 11.4584C18.3327 8.77424 16.4682 6.54233 13.7493 5.41015L12.291 6.04173L12.4993 8.3334L9.79102 7.50006L7.08268 8.3334V6.04173L5.83268 5.41015C3.34184 6.59887 1.66602 8.91368 1.66602 11.4584C1.66602 15.2554 5.39698 18.3334 9.99935 18.3334Z" fill="#BEBEBE" stroke="#BEBEBE" stroke-width="2" stroke-linecap="round" stroke-linejoin="round"/>
<path d="M9.79036 1.6665L11.3773 3.79847L14.9987 4.12893L12.3582 6.03454L13.1237 8.74984L9.79036 7.49984L6.45703 8.74984L7.22247 6.03454L4.58203 4.12893L8.20331 3.79847L9.79036 1.6665Z" stroke="#BEBEBE" stroke-width="2" stroke-linecap="round" stroke-linejoin="round"/>
</g>
<defs>
<clipPath id="clip0_1954_17596">
<rect width="20" height="20" fill="white"/>
</clipPath>
</defs>
</svg>
